<?xml version="1.0" encoding="utf-8"?>
<!-- Generator: Adobe Illustrator 15.0.0, SVG Export Plug-In . SVG Version: 6.00 Build 0)  -->
<!DOCTYPE svg PUBLIC "-//W3C//DTD SVG 1.1//EN" "http://www.w3.org/Graphics/SVG/1.1/DTD/svg11.dtd">
<svg version="1.1" xmlns="http://www.w3.org/2000/svg" xmlns:xlink="http://www.w3.org/1999/xlink" x="0px" y="0px" width="50px"
	 height="50px" viewBox="0 0 50 50" enable-background="new 0 0 50 50" xml:space="preserve">
<g id="Layer_7" display="none">
	<rect x="-2" display="inline" fill-rule="evenodd" clip-rule="evenodd" fill="#333333" width="53" height="51"/>
</g>
<g id="blue" display="none">
	<g id="map" display="inline">
		<polygon fill="none" stroke="#00B0CE" stroke-miterlimit="10" points="40.477,36.563 32.959,32.21 26.125,36.351 16.822,33.317 
			9.822,37.48 9.822,15.246 16.822,11.083 26.125,14.116 32.959,9.976 40.477,14.329 		"/>
		<line fill="none" stroke="#00B0CE" stroke-miterlimit="10" x1="33.959" y1="14.589" x2="33.959" y2="28.861"/>
		<line fill="none" stroke="#00B0CE" stroke-miterlimit="10" x1="25.125" y1="17.589" x2="25.125" y2="31.86"/>
		<line fill="none" stroke="#00B0CE" stroke-miterlimit="10" x1="16.822" y1="15.588" x2="16.822" y2="29.861"/>
	</g>
	<g id="globe" display="inline">
		<g>
			<path fill-rule="evenodd" clip-rule="evenodd" fill="none" stroke="#00B0CE" stroke-miterlimit="10" d="M24.842,35.517
				c-6.352,0-11.5-5.148-11.5-11.5c0-6.353,5.148-11.5,11.5-11.5s11.5,5.147,11.5,11.5C36.342,30.368,31.193,35.517,24.842,35.517"
				/>
			<line fill="none" stroke="#00B0CE" stroke-miterlimit="10" x1="14.51" y1="18.856" x2="35.174" y2="18.856"/>
			<line fill="none" stroke="#00B0CE" stroke-miterlimit="10" x1="14.51" y1="28.523" x2="35.174" y2="28.523"/>
			<line fill="none" stroke="#00B0CE" stroke-miterlimit="10" x1="13.203" y1="23.693" x2="36.48" y2="23.693"/>
			<g>
				<path fill="none" stroke="#00B0CE" stroke-miterlimit="10" d="M24.805,12.537c-6.146,6.667-6.652,16.543-0.016,22.66"/>
				<path fill="none" stroke="#00B0CE" stroke-miterlimit="10" d="M24.805,12.537c6.115,6.639,6.826,16.511,0.16,22.66"/>
			</g>
		</g>
	</g>
	<g id="pin_x5F_bottom" display="inline">
		<path fill="none" stroke="#00B0CE" stroke-miterlimit="10" d="M21,36.469"/>
		<path fill-rule="evenodd" clip-rule="evenodd" fill="none" stroke="#00B0CE" stroke-miterlimit="10" d="M32.649,35.491h-6.122
			c2.353-2.734,8.622-10.418,8.622-14.625c0-5.177-4.254-9.375-9.5-9.375s-9.5,4.198-9.5,9.375c0,4.207,6.269,11.891,8.621,14.625
			h-6.121c-0.275,0-0.5,0.223-0.5,0.5c0,0.275,0.225,0.5,0.5,0.5h6.998h0.002l0,0h7c0.275,0,0.5-0.225,0.5-0.5
			C33.149,35.714,32.925,35.491,32.649,35.491"/>
	</g>
	<g id="pin" display="inline">
		<path fill-rule="evenodd" clip-rule="evenodd" fill="none" stroke="#00B0CE" stroke-miterlimit="10" d="M16.557,21.356
			c0-4.619,3.812-8.375,8.5-8.375s8.5,3.756,8.5,8.375c0,3.592-5.582,10.758-8.5,14.117C22.138,32.114,16.557,24.951,16.557,21.356"
			/>
		<path fill-rule="evenodd" clip-rule="evenodd" fill="none" stroke="#00B0CE" stroke-miterlimit="10" d="M25.057,24.228
			c-1.934,0-3.5-1.565-3.5-3.498c0-1.935,1.566-3.502,3.5-3.502s3.5,1.567,3.5,3.502C28.557,22.662,26.99,24.228,25.057,24.228"/>
	</g>
	<g id="pin_x5F_group" display="inline">
		<path fill-rule="evenodd" clip-rule="evenodd" fill="none" stroke="#00B0CE" stroke-miterlimit="10" d="M16.557,21.356
			c0-4.619,3.812-8.375,8.5-8.375s8.5,3.756,8.5,8.375c0,3.592-5.582,10.758-8.5,14.117C22.138,32.114,16.557,24.951,16.557,21.356"
			/>
		<g>
			<path fill-rule="evenodd" clip-rule="evenodd" fill="none" stroke="#00B0CE" stroke-miterlimit="10" d="M32.9,14.519
				c4.054,0,7.352,3.248,7.352,7.244c0,3.106-4.828,9.305-7.352,12.21c-0.657-0.757-1.47-1.736-2.312-2.824"/>
			<path fill-rule="evenodd" clip-rule="evenodd" fill="none" stroke="#00B0CE" stroke-miterlimit="10" d="M19.526,31.148
				c-0.843,1.088-1.655,2.067-2.313,2.824c-2.523-2.905-7.352-9.104-7.352-12.21c0-3.996,3.297-7.244,7.352-7.244"/>
		</g>
		<path fill-rule="evenodd" clip-rule="evenodd" fill="none" stroke="#00B0CE" stroke-miterlimit="10" d="M25.057,24.228
			c-1.934,0-3.5-1.565-3.5-3.498c0-1.935,1.566-3.502,3.5-3.502s3.5,1.567,3.5,3.502C28.557,22.662,26.99,24.228,25.057,24.228"/>
	</g>
</g>
<g id="orange">
	<g id="map_copy" display="none">
		<polygon display="inline" fill="none" stroke="#F97742" stroke-miterlimit="10" points="40.477,36.563 32.959,32.21 
			26.125,36.351 16.822,33.317 9.822,37.48 9.822,15.246 16.822,11.083 26.125,14.116 32.959,9.976 40.477,14.329 		"/>
		<line display="inline" fill="none" stroke="#F97742" stroke-miterlimit="10" x1="33.959" y1="14.589" x2="33.959" y2="28.861"/>
		<line display="inline" fill="none" stroke="#F97742" stroke-miterlimit="10" x1="25.125" y1="17.589" x2="25.125" y2="31.86"/>
		<line display="inline" fill="none" stroke="#F97742" stroke-miterlimit="10" x1="16.822" y1="15.588" x2="16.822" y2="29.861"/>
	</g>
	<g id="globe_copy" display="none">
		<g display="inline">
			<path fill-rule="evenodd" clip-rule="evenodd" fill="none" stroke="#F97742" stroke-miterlimit="10" d="M24.842,35.517
				c-6.352,0-11.5-5.148-11.5-11.5c0-6.353,5.148-11.5,11.5-11.5s11.5,5.147,11.5,11.5C36.342,30.368,31.193,35.517,24.842,35.517"
				/>
			<line fill="none" stroke="#F97742" stroke-miterlimit="10" x1="14.51" y1="18.856" x2="35.174" y2="18.856"/>
			<line fill="none" stroke="#F97742" stroke-miterlimit="10" x1="14.51" y1="28.523" x2="35.174" y2="28.523"/>
			<line fill="none" stroke="#F97742" stroke-miterlimit="10" x1="13.203" y1="23.693" x2="36.48" y2="23.693"/>
			<g>
				<path fill="none" stroke="#F97742" stroke-miterlimit="10" d="M24.805,12.537c-6.146,6.667-6.652,16.543-0.016,22.66"/>
				<path fill="none" stroke="#F97742" stroke-miterlimit="10" d="M24.805,12.537c6.115,6.639,6.826,16.511,0.16,22.66"/>
			</g>
		</g>
	</g>
	<g id="pin_x5F_bottom_copy">
		<path fill="none" stroke="#F97742" stroke-miterlimit="10" d="M21,36.469"/>
		<path fill-rule="evenodd" clip-rule="evenodd" fill="none" stroke="#F97742" stroke-miterlimit="10" d="M32.649,35.491h-6.122
			c2.353-2.734,8.622-10.418,8.622-14.625c0-5.177-4.254-9.375-9.5-9.375s-9.5,4.198-9.5,9.375c0,4.207,6.269,11.891,8.621,14.625
			h-6.121c-0.275,0-0.5,0.223-0.5,0.5c0,0.275,0.225,0.5,0.5,0.5h6.998h0.002l0,0h7c0.275,0,0.5-0.225,0.5-0.5
			C33.149,35.714,32.925,35.491,32.649,35.491"/>
	</g>
	<g id="pin_copy" display="none">
		<path display="inline" fill-rule="evenodd" clip-rule="evenodd" fill="none" stroke="#F97742" stroke-miterlimit="10" d="
			M16.557,21.356c0-4.619,3.812-8.375,8.5-8.375s8.5,3.756,8.5,8.375c0,3.592-5.582,10.758-8.5,14.117
			C22.138,32.114,16.557,24.951,16.557,21.356"/>
		<path display="inline" fill-rule="evenodd" clip-rule="evenodd" fill="none" stroke="#F97742" stroke-miterlimit="10" d="
			M25.057,24.228c-1.934,0-3.5-1.565-3.5-3.498c0-1.935,1.566-3.502,3.5-3.502s3.5,1.567,3.5,3.502
			C28.557,22.662,26.99,24.228,25.057,24.228"/>
	</g>
	<g id="pin_x5F_group_copy" display="none">
		<path display="inline" fill-rule="evenodd" clip-rule="evenodd" fill="none" stroke="#F97742" stroke-miterlimit="10" d="
			M16.557,21.356c0-4.619,3.812-8.375,8.5-8.375s8.5,3.756,8.5,8.375c0,3.592-5.582,10.758-8.5,14.117
			C22.138,32.114,16.557,24.951,16.557,21.356"/>
		<g display="inline">
			<path fill-rule="evenodd" clip-rule="evenodd" fill="none" stroke="#F97742" stroke-miterlimit="10" d="M32.9,14.519
				c4.054,0,7.352,3.248,7.352,7.244c0,3.106-4.828,9.305-7.352,12.21c-0.657-0.757-1.47-1.736-2.312-2.824"/>
			<path fill-rule="evenodd" clip-rule="evenodd" fill="none" stroke="#F97742" stroke-miterlimit="10" d="M19.526,31.148
				c-0.843,1.088-1.655,2.067-2.313,2.824c-2.523-2.905-7.352-9.104-7.352-12.21c0-3.996,3.297-7.244,7.352-7.244"/>
		</g>
		<path display="inline" fill-rule="evenodd" clip-rule="evenodd" fill="none" stroke="#F97742" stroke-miterlimit="10" d="
			M25.057,24.228c-1.934,0-3.5-1.565-3.5-3.498c0-1.935,1.566-3.502,3.5-3.502s3.5,1.567,3.5,3.502
			C28.557,22.662,26.99,24.228,25.057,24.228"/>
	</g>
</g>
<g id="teal" display="none">
	<g id="map_copy_2" display="inline">
		<polygon fill="none" stroke="#00BCA7" stroke-miterlimit="10" points="40.477,36.563 32.959,32.21 26.125,36.351 16.822,33.317 
			9.822,37.48 9.822,15.246 16.822,11.083 26.125,14.116 32.959,9.976 40.477,14.329 		"/>
		<line fill="none" stroke="#00BCA7" stroke-miterlimit="10" x1="33.959" y1="14.589" x2="33.959" y2="28.861"/>
		<line fill="none" stroke="#00BCA7" stroke-miterlimit="10" x1="25.125" y1="17.589" x2="25.125" y2="31.86"/>
		<line fill="none" stroke="#00BCA7" stroke-miterlimit="10" x1="16.822" y1="15.588" x2="16.822" y2="29.861"/>
	</g>
	<g id="globe_copy_2" display="inline">
		<g>
			<path fill-rule="evenodd" clip-rule="evenodd" fill="none" stroke="#00BCA7" stroke-miterlimit="10" d="M24.842,35.517
				c-6.352,0-11.5-5.148-11.5-11.5c0-6.353,5.148-11.5,11.5-11.5s11.5,5.147,11.5,11.5C36.342,30.368,31.193,35.517,24.842,35.517"
				/>
			<line fill="none" stroke="#00BCA7" stroke-miterlimit="10" x1="14.51" y1="18.856" x2="35.174" y2="18.856"/>
			<line fill="none" stroke="#00BCA7" stroke-miterlimit="10" x1="14.51" y1="28.523" x2="35.174" y2="28.523"/>
			<line fill="none" stroke="#00BCA7" stroke-miterlimit="10" x1="13.203" y1="23.693" x2="36.48" y2="23.693"/>
			<g>
				<path fill="none" stroke="#00BCA7" stroke-miterlimit="10" d="M24.805,12.537c-6.146,6.667-6.652,16.543-0.016,22.66"/>
				<path fill="none" stroke="#00BCA7" stroke-miterlimit="10" d="M24.805,12.537c6.115,6.639,6.826,16.511,0.16,22.66"/>
			</g>
		</g>
	</g>
	<g id="pin_x5F_bottom_copy_2" display="inline">
		<path fill="none" stroke="#00BCA7" stroke-miterlimit="10" d="M21,36.469"/>
		<path fill-rule="evenodd" clip-rule="evenodd" fill="none" stroke="#00BCA7" stroke-miterlimit="10" d="M32.649,35.491h-6.122
			c2.353-2.734,8.622-10.418,8.622-14.625c0-5.177-4.254-9.375-9.5-9.375s-9.5,4.198-9.5,9.375c0,4.207,6.269,11.891,8.621,14.625
			h-6.121c-0.275,0-0.5,0.223-0.5,0.5c0,0.275,0.225,0.5,0.5,0.5h6.998h0.002l0,0h7c0.275,0,0.5-0.225,0.5-0.5
			C33.149,35.714,32.925,35.491,32.649,35.491"/>
	</g>
	<g id="pin_copy_2" display="inline">
		<path fill-rule="evenodd" clip-rule="evenodd" fill="none" stroke="#00BCA7" stroke-miterlimit="10" d="M16.557,21.356
			c0-4.619,3.812-8.375,8.5-8.375s8.5,3.756,8.5,8.375c0,3.592-5.582,10.758-8.5,14.117C22.138,32.114,16.557,24.951,16.557,21.356"
			/>
		<path fill-rule="evenodd" clip-rule="evenodd" fill="none" stroke="#00BCA7" stroke-miterlimit="10" d="M25.057,24.228
			c-1.934,0-3.5-1.565-3.5-3.498c0-1.935,1.566-3.502,3.5-3.502s3.5,1.567,3.5,3.502C28.557,22.662,26.99,24.228,25.057,24.228"/>
	</g>
	<g id="pin_x5F_group_copy_2" display="inline">
		<path fill-rule="evenodd" clip-rule="evenodd" fill="none" stroke="#00BCA7" stroke-miterlimit="10" d="M16.557,21.356
			c0-4.619,3.812-8.375,8.5-8.375s8.5,3.756,8.5,8.375c0,3.592-5.582,10.758-8.5,14.117C22.138,32.114,16.557,24.951,16.557,21.356"
			/>
		<g>
			<path fill-rule="evenodd" clip-rule="evenodd" fill="none" stroke="#00BCA7" stroke-miterlimit="10" d="M32.9,14.519
				c4.054,0,7.352,3.248,7.352,7.244c0,3.106-4.828,9.305-7.352,12.21c-0.657-0.757-1.47-1.736-2.312-2.824"/>
			<path fill-rule="evenodd" clip-rule="evenodd" fill="none" stroke="#00BCA7" stroke-miterlimit="10" d="M19.526,31.148
				c-0.843,1.088-1.655,2.067-2.313,2.824c-2.523-2.905-7.352-9.104-7.352-12.21c0-3.996,3.297-7.244,7.352-7.244"/>
		</g>
		<path fill-rule="evenodd" clip-rule="evenodd" fill="none" stroke="#00BCA7" stroke-miterlimit="10" d="M25.057,24.228
			c-1.934,0-3.5-1.565-3.5-3.498c0-1.935,1.566-3.502,3.5-3.502s3.5,1.567,3.5,3.502C28.557,22.662,26.99,24.228,25.057,24.228"/>
	</g>
</g>
<g id="dark" display="none">
	<g id="map_copy_3" display="inline">
		<polygon fill="none" stroke="#313A44" stroke-miterlimit="10" points="40.477,36.563 32.959,32.21 26.125,36.351 16.822,33.317 
			9.822,37.48 9.822,15.246 16.822,11.083 26.125,14.116 32.959,9.976 40.477,14.329 		"/>
		<line fill="none" stroke="#313A44" stroke-miterlimit="10" x1="33.959" y1="14.589" x2="33.959" y2="28.861"/>
		<line fill="none" stroke="#313A44" stroke-miterlimit="10" x1="25.125" y1="17.589" x2="25.125" y2="31.86"/>
		<line fill="none" stroke="#313A44" stroke-miterlimit="10" x1="16.822" y1="15.588" x2="16.822" y2="29.861"/>
	</g>
	<g id="globe_copy_3" display="inline">
		<g>
			<path fill-rule="evenodd" clip-rule="evenodd" fill="none" stroke="#313A44" stroke-miterlimit="10" d="M24.842,35.517
				c-6.352,0-11.5-5.148-11.5-11.5c0-6.353,5.148-11.5,11.5-11.5s11.5,5.147,11.5,11.5C36.342,30.368,31.193,35.517,24.842,35.517"
				/>
			<line fill="none" stroke="#313A44" stroke-miterlimit="10" x1="14.51" y1="18.856" x2="35.174" y2="18.856"/>
			<line fill="none" stroke="#313A44" stroke-miterlimit="10" x1="14.51" y1="28.523" x2="35.174" y2="28.523"/>
			<line fill="none" stroke="#313A44" stroke-miterlimit="10" x1="13.203" y1="23.693" x2="36.48" y2="23.693"/>
			<g>
				<path fill="none" stroke="#313A44" stroke-miterlimit="10" d="M24.805,12.537c-6.146,6.667-6.652,16.543-0.016,22.66"/>
				<path fill="none" stroke="#313A44" stroke-miterlimit="10" d="M24.805,12.537c6.115,6.639,6.826,16.511,0.16,22.66"/>
			</g>
		</g>
	</g>
	<g id="pin_x5F_bottom_copy_3" display="inline">
		<path fill="none" stroke="#313A44" stroke-miterlimit="10" d="M21,36.469"/>
		<path fill-rule="evenodd" clip-rule="evenodd" fill="none" stroke="#313A44" stroke-miterlimit="10" d="M32.649,35.491h-6.122
			c2.353-2.734,8.622-10.418,8.622-14.625c0-5.177-4.254-9.375-9.5-9.375s-9.5,4.198-9.5,9.375c0,4.207,6.269,11.891,8.621,14.625
			h-6.121c-0.275,0-0.5,0.223-0.5,0.5c0,0.275,0.225,0.5,0.5,0.5h6.998h0.002l0,0h7c0.275,0,0.5-0.225,0.5-0.5
			C33.149,35.714,32.925,35.491,32.649,35.491"/>
	</g>
	<g id="pin_copy_3" display="inline">
		<path fill-rule="evenodd" clip-rule="evenodd" fill="none" stroke="#313A44" stroke-miterlimit="10" d="M16.557,21.356
			c0-4.619,3.812-8.375,8.5-8.375s8.5,3.756,8.5,8.375c0,3.592-5.582,10.758-8.5,14.117C22.138,32.114,16.557,24.951,16.557,21.356"
			/>
		<path fill-rule="evenodd" clip-rule="evenodd" fill="none" stroke="#313A44" stroke-miterlimit="10" d="M25.057,24.228
			c-1.934,0-3.5-1.565-3.5-3.498c0-1.935,1.566-3.502,3.5-3.502s3.5,1.567,3.5,3.502C28.557,22.662,26.99,24.228,25.057,24.228"/>
	</g>
	<g id="pin_x5F_group_copy_3" display="inline">
		<path fill-rule="evenodd" clip-rule="evenodd" fill="none" stroke="#313A44" stroke-miterlimit="10" d="M16.557,21.356
			c0-4.619,3.812-8.375,8.5-8.375s8.5,3.756,8.5,8.375c0,3.592-5.582,10.758-8.5,14.117C22.138,32.114,16.557,24.951,16.557,21.356"
			/>
		<g>
			<path fill-rule="evenodd" clip-rule="evenodd" fill="none" stroke="#313A44" stroke-miterlimit="10" d="M32.9,14.519
				c4.054,0,7.352,3.248,7.352,7.244c0,3.106-4.828,9.305-7.352,12.21c-0.657-0.757-1.47-1.736-2.312-2.824"/>
			<path fill-rule="evenodd" clip-rule="evenodd" fill="none" stroke="#313A44" stroke-miterlimit="10" d="M19.526,31.148
				c-0.843,1.088-1.655,2.067-2.313,2.824c-2.523-2.905-7.352-9.104-7.352-12.21c0-3.996,3.297-7.244,7.352-7.244"/>
		</g>
		<path fill-rule="evenodd" clip-rule="evenodd" fill="none" stroke="#313A44" stroke-miterlimit="10" d="M25.057,24.228
			c-1.934,0-3.5-1.565-3.5-3.498c0-1.935,1.566-3.502,3.5-3.502s3.5,1.567,3.5,3.502C28.557,22.662,26.99,24.228,25.057,24.228"/>
	</g>
</g>
<g id="grey" display="none">
	<g id="map_copy_4" display="inline">
		<polygon fill="none" stroke="#9DA7B2" stroke-miterlimit="10" points="40.477,36.563 32.959,32.21 26.125,36.351 16.822,33.317 
			9.822,37.48 9.822,15.246 16.822,11.083 26.125,14.116 32.959,9.976 40.477,14.329 		"/>
		<line fill="none" stroke="#9DA7B2" stroke-miterlimit="10" x1="33.959" y1="14.589" x2="33.959" y2="28.861"/>
		<line fill="none" stroke="#9DA7B2" stroke-miterlimit="10" x1="25.125" y1="17.589" x2="25.125" y2="31.86"/>
		<line fill="none" stroke="#9DA7B2" stroke-miterlimit="10" x1="16.822" y1="15.588" x2="16.822" y2="29.861"/>
	</g>
	<g id="globe_copy_4" display="inline">
		<g>
			<path fill-rule="evenodd" clip-rule="evenodd" fill="none" stroke="#9DA7B2" stroke-miterlimit="10" d="M24.842,35.517
				c-6.352,0-11.5-5.148-11.5-11.5c0-6.353,5.148-11.5,11.5-11.5s11.5,5.147,11.5,11.5C36.342,30.368,31.193,35.517,24.842,35.517"
				/>
			<line fill="none" stroke="#9DA7B2" stroke-miterlimit="10" x1="14.51" y1="18.856" x2="35.174" y2="18.856"/>
			<line fill="none" stroke="#9DA7B2" stroke-miterlimit="10" x1="14.51" y1="28.523" x2="35.174" y2="28.523"/>
			<line fill="none" stroke="#9DA7B2" stroke-miterlimit="10" x1="13.203" y1="23.693" x2="36.48" y2="23.693"/>
			<g>
				<path fill="none" stroke="#9DA7B2" stroke-miterlimit="10" d="M24.805,12.537c-6.146,6.667-6.652,16.543-0.016,22.66"/>
				<path fill="none" stroke="#9DA7B2" stroke-miterlimit="10" d="M24.805,12.537c6.115,6.639,6.826,16.511,0.16,22.66"/>
			</g>
		</g>
	</g>
	<g id="pin_x5F_bottom_copy_4" display="inline">
		<path fill="none" stroke="#9DA7B2" stroke-miterlimit="10" d="M21,36.469"/>
		<path fill-rule="evenodd" clip-rule="evenodd" fill="none" stroke="#9DA7B2" stroke-miterlimit="10" d="M32.649,35.491h-6.122
			c2.353-2.734,8.622-10.418,8.622-14.625c0-5.177-4.254-9.375-9.5-9.375s-9.5,4.198-9.5,9.375c0,4.207,6.269,11.891,8.621,14.625
			h-6.121c-0.275,0-0.5,0.223-0.5,0.5c0,0.275,0.225,0.5,0.5,0.5h6.998h0.002l0,0h7c0.275,0,0.5-0.225,0.5-0.5
			C33.149,35.714,32.925,35.491,32.649,35.491"/>
	</g>
	<g id="pin_copy_4" display="inline">
		<path fill-rule="evenodd" clip-rule="evenodd" fill="none" stroke="#9DA7B2" stroke-miterlimit="10" d="M16.557,21.356
			c0-4.619,3.812-8.375,8.5-8.375s8.5,3.756,8.5,8.375c0,3.592-5.582,10.758-8.5,14.117C22.138,32.114,16.557,24.951,16.557,21.356"
			/>
		<path fill-rule="evenodd" clip-rule="evenodd" fill="none" stroke="#9DA7B2" stroke-miterlimit="10" d="M25.057,24.228
			c-1.934,0-3.5-1.565-3.5-3.498c0-1.935,1.566-3.502,3.5-3.502s3.5,1.567,3.5,3.502C28.557,22.662,26.99,24.228,25.057,24.228"/>
	</g>
	<g id="pin_x5F_group_copy_4" display="inline">
		<path fill-rule="evenodd" clip-rule="evenodd" fill="none" stroke="#9DA7B2" stroke-miterlimit="10" d="M16.557,21.356
			c0-4.619,3.812-8.375,8.5-8.375s8.5,3.756,8.5,8.375c0,3.592-5.582,10.758-8.5,14.117C22.138,32.114,16.557,24.951,16.557,21.356"
			/>
		<g>
			<path fill-rule="evenodd" clip-rule="evenodd" fill="none" stroke="#9DA7B2" stroke-miterlimit="10" d="M32.9,14.519
				c4.054,0,7.352,3.248,7.352,7.244c0,3.106-4.828,9.305-7.352,12.21c-0.657-0.757-1.47-1.736-2.312-2.824"/>
			<path fill-rule="evenodd" clip-rule="evenodd" fill="none" stroke="#9DA7B2" stroke-miterlimit="10" d="M19.526,31.148
				c-0.843,1.088-1.655,2.067-2.313,2.824c-2.523-2.905-7.352-9.104-7.352-12.21c0-3.996,3.297-7.244,7.352-7.244"/>
		</g>
		<path fill-rule="evenodd" clip-rule="evenodd" fill="none" stroke="#9DA7B2" stroke-miterlimit="10" d="M25.057,24.228
			c-1.934,0-3.5-1.565-3.5-3.498c0-1.935,1.566-3.502,3.5-3.502s3.5,1.567,3.5,3.502C28.557,22.662,26.99,24.228,25.057,24.228"/>
	</g>
</g>
<g id="comb-logo-light" display="none">
	<rect x="10.418" y="8.458" display="inline" fill="none" width="27.141" height="27.438"/>
	<text transform="matrix(1 0 0 1 10.418 34.377)" display="inline" font-family="'Helvetica-Light'" font-size="36">C</text>
	<g display="inline">
		<g>
			<path d="M15.402,14.091c3.331,0,6.662,0,9.993,0c0.78,0,2.036-1.183,0.728-1.183c-3.331,0-6.662,0-9.993,0
				C15.351,12.909,14.095,14.091,15.402,14.091L15.402,14.091z"/>
		</g>
	</g>
	<g display="inline">
		<g>
			<path d="M16.689,12.091c2.933,0,5.865,0,8.797,0c0.78,0,2.036-1.183,0.728-1.183c-2.932,0-5.864,0-8.796,0
				C16.638,10.909,15.382,12.091,16.689,12.091L16.689,12.091z"/>
		</g>
	</g>
	<g display="inline">
		<g>
			<path d="M16.689,32.092c2.933,0,5.865,0,8.797,0c0.78,0,2.036-1.184,0.728-1.184c-2.932,0-5.864,0-8.796,0
				C16.638,30.908,15.382,32.092,16.689,32.092L16.689,32.092z"/>
		</g>
	</g>
	<g display="inline">
		<g>
			<path d="M14.161,16.091c3.709,0,7.419,0,11.128,0c0.779,0,2.036-1.183,0.729-1.183c-3.709,0-7.419,0-11.128,0
				C14.11,14.909,12.854,16.091,14.161,16.091L14.161,16.091z"/>
		</g>
	</g>
	<g display="inline">
		<g>
			<path d="M14.161,18.091c3.709,0,7.419,0,11.128,0c0.779,0,2.036-1.183,0.729-1.183c-3.709,0-7.419,0-11.128,0
				C14.11,16.909,12.854,18.091,14.161,18.091L14.161,18.091z"/>
		</g>
	</g>
	<g display="inline">
		<g>
			<g>
				<path d="M14.161,20.091c3.709,0,7.419,0,11.128,0c0.779,0,2.036-1.183,0.729-1.183c-3.709,0-7.419,0-11.128,0
					C14.11,18.909,12.854,20.091,14.161,20.091L14.161,20.091z"/>
			</g>
		</g>
		<g>
			<g>
				<path d="M14.161,22.091c3.709,0,7.419,0,11.128,0c0.779,0,2.036-1.183,0.729-1.183c-3.709,0-7.419,0-11.128,0
					C14.11,20.909,12.854,22.091,14.161,22.091L14.161,22.091z"/>
			</g>
		</g>
		<g>
			<g>
				<path d="M14.161,24.091c3.709,0,7.419,0,11.128,0c0.779,0,2.036-1.183,0.729-1.183c-3.709,0-7.419,0-11.128,0
					C14.11,22.909,12.854,24.091,14.161,24.091L14.161,24.091z"/>
			</g>
		</g>
	</g>
	<g display="inline">
		<g>
			<path d="M14.161,26.092c3.709,0,7.419,0,11.128,0c0.779,0,2.036-1.183,0.729-1.183c-3.709,0-7.419,0-11.128,0
				C14.11,24.909,12.854,26.092,14.161,26.092L14.161,26.092z"/>
		</g>
	</g>
	<g display="inline">
		<g>
			<path d="M14.161,28.092c3.709,0,7.419,0,11.128,0c0.779,0,2.036-1.184,0.729-1.184c-3.709,0-7.419,0-11.128,0
				C14.11,26.908,12.854,28.092,14.161,28.092L14.161,28.092z"/>
		</g>
	</g>
	<g display="inline">
		<g>
			<path d="M14.849,30.092c3.498,0,6.996,0,10.493,0c0.78,0,2.036-1.184,0.728-1.184c-3.498,0-6.995,0-10.493,0
				C14.798,28.908,13.542,30.092,14.849,30.092L14.849,30.092z"/>
		</g>
	</g>
</g>
<g id="comb-logo-regular" display="none">
	<rect x="10.466" y="8.458" display="inline" fill="none" width="27.141" height="27.438"/>
	<text transform="matrix(1 0 0 1 10.4658 34.3418)" display="inline" font-family="'Helvetica'" font-size="36">C</text>
	<g display="inline">
		<g>
			<path d="M15.596,13.091c2.668,0,5.335,0,8.003,0c0.78,0,2.036-1.183,0.729-1.183c-2.668,0-5.335,0-8.003,0
				C15.544,11.909,14.289,13.091,15.596,13.091L15.596,13.091z"/>
		</g>
	</g>
	<g>
		<g display="inline">
			<path d="M16.626,11.091c2.349,0,4.697,0,7.045,0c0.78,0,2.036-1.183,0.729-1.183c-2.349,0-4.697,0-7.045,0
				C16.575,9.909,15.319,11.091,16.626,11.091L16.626,11.091z"/>
		</g>
	</g>
	<g display="inline">
		<g>
			<path d="M16.626,31.092c2.349,0,4.697,0,7.045,0c0.78,0,2.036-1.184,0.729-1.184c-2.349,0-4.697,0-7.045,0
				C16.575,29.908,15.319,31.092,16.626,31.092L16.626,31.092z"/>
		</g>
	</g>
	<g display="inline">
		<g>
			<path d="M14.602,15.091c2.971,0,5.941,0,8.912,0c0.78,0,2.036-1.183,0.729-1.183c-2.971,0-5.941,0-8.912,0
				C14.551,13.909,13.295,15.091,14.602,15.091L14.602,15.091z"/>
		</g>
	</g>
	<g display="inline">
		<g>
			<path d="M14.602,17.091c2.971,0,5.941,0,8.912,0c0.78,0,2.036-1.183,0.729-1.183c-2.971,0-5.941,0-8.912,0
				C14.551,15.909,13.295,17.091,14.602,17.091L14.602,17.091z"/>
		</g>
	</g>
	<g display="inline">
		<g>
			<g>
				<path d="M14.602,19.091c2.971,0,5.941,0,8.912,0c0.78,0,2.036-1.183,0.729-1.183c-2.971,0-5.941,0-8.912,0
					C14.551,17.909,13.295,19.091,14.602,19.091L14.602,19.091z"/>
			</g>
		</g>
		<g>
			<g>
				<path d="M14.602,21.091c2.971,0,5.941,0,8.912,0c0.78,0,2.036-1.183,0.729-1.183c-2.971,0-5.941,0-8.912,0
					C14.551,19.909,13.295,21.091,14.602,21.091L14.602,21.091z"/>
			</g>
		</g>
		<g>
			<g>
				<path d="M14.602,23.091c2.971,0,5.941,0,8.912,0c0.78,0,2.036-1.183,0.729-1.183c-2.971,0-5.941,0-8.912,0
					C14.551,21.909,13.295,23.091,14.602,23.091L14.602,23.091z"/>
			</g>
		</g>
	</g>
	<g display="inline">
		<g>
			<path d="M14.602,25.091c2.971,0,5.941,0,8.912,0c0.78,0,2.036-1.183,0.729-1.183c-2.971,0-5.941,0-8.912,0
				C14.551,23.909,13.295,25.091,14.602,25.091L14.602,25.091z"/>
		</g>
	</g>
	<g display="inline">
		<g>
			<path d="M14.602,27.092c2.971,0,5.941,0,8.912,0c0.78,0,2.036-1.183,0.729-1.183c-2.971,0-5.941,0-8.912,0
				C14.551,25.909,13.295,27.092,14.602,27.092L14.602,27.092z"/>
		</g>
	</g>
	<g display="inline">
		<g>
			<path d="M15.153,29.092c2.801,0,5.603,0,8.404,0c0.78,0,2.036-1.184,0.729-1.184c-2.801,0-5.603,0-8.404,0
				C15.102,27.908,13.846,29.092,15.153,29.092L15.153,29.092z"/>
		</g>
	</g>
</g>
<g id="comb-logo-light_copy_2" display="none">
	<rect x="10.466" y="8.458" display="inline" fill="none" width="27.141" height="27.438"/>
	
		<text transform="matrix(1 0 0 1 10.4658 34.3418)" display="inline" fill="#00B0CE" stroke="#00B0CE" stroke-miterlimit="10" font-family="'Helvetica-Bold'" font-size="36">C</text>
	<g>
		<line display="inline" fill="#00B0CE" x1="16" y1="13" x2="24" y2="13"/>
		<g display="inline">
			<path fill="#00B0CE" d="M15.596,13.091c2.668,0,5.335,0,8.003,0c0.78,0,2.036-1.183,0.729-1.183c-2.668,0-5.335,0-8.003,0
				C15.544,11.909,14.289,13.091,15.596,13.091L15.596,13.091z"/>
		</g>
	</g>
	<g>
		<line display="inline" fill="#00B0CE" x1="17" y1="11" x2="24" y2="11"/>
		<g display="inline">
			<path fill="#00B0CE" d="M16.626,11.091c2.349,0,4.697,0,7.045,0c0.78,0,2.036-1.183,0.729-1.183c-2.349,0-4.697,0-7.045,0
				C16.575,9.909,15.319,11.091,16.626,11.091L16.626,11.091z"/>
		</g>
	</g>
	<g>
		<line display="inline" fill="#00B0CE" x1="17" y1="31" x2="24" y2="31"/>
		<g display="inline">
			<path fill="#00B0CE" d="M16.626,31.092c2.349,0,4.697,0,7.045,0c0.78,0,2.036-1.184,0.729-1.184c-2.349,0-4.697,0-7.045,0
				C16.575,29.908,15.319,31.092,16.626,31.092L16.626,31.092z"/>
		</g>
	</g>
	<g display="inline">
		<line fill="#00B0CE" x1="15" y1="15" x2="24" y2="15"/>
		<g>
			<path fill="#00B0CE" d="M14.602,15.091c2.971,0,5.941,0,8.912,0c0.78,0,2.036-1.183,0.729-1.183c-2.971,0-5.941,0-8.912,0
				C14.551,13.909,13.295,15.091,14.602,15.091L14.602,15.091z"/>
		</g>
	</g>
	<g display="inline">
		<line fill="#00B0CE" x1="15" y1="17" x2="24" y2="17"/>
		<g>
			<path fill="#00B0CE" d="M14.602,17.091c2.971,0,5.941,0,8.912,0c0.78,0,2.036-1.183,0.729-1.183c-2.971,0-5.941,0-8.912,0
				C14.551,15.909,13.295,17.091,14.602,17.091L14.602,17.091z"/>
		</g>
	</g>
	<g display="inline">
		<g>
			<line fill="#00B0CE" x1="15" y1="19" x2="24" y2="19"/>
			<g>
				<path fill="#00B0CE" d="M14.602,19.091c2.971,0,5.941,0,8.912,0c0.78,0,2.036-1.183,0.729-1.183c-2.971,0-5.941,0-8.912,0
					C14.551,17.909,13.295,19.091,14.602,19.091L14.602,19.091z"/>
			</g>
		</g>
		<g>
			<line fill="#00B0CE" x1="15" y1="21" x2="24" y2="21"/>
			<g>
				<path fill="#00B0CE" d="M14.602,21.091c2.971,0,5.941,0,8.912,0c0.78,0,2.036-1.183,0.729-1.183c-2.971,0-5.941,0-8.912,0
					C14.551,19.909,13.295,21.091,14.602,21.091L14.602,21.091z"/>
			</g>
		</g>
		<g>
			<line fill="#00B0CE" x1="15" y1="23" x2="24" y2="23"/>
			<g>
				<path fill="#00B0CE" d="M14.602,23.091c2.971,0,5.941,0,8.912,0c0.78,0,2.036-1.183,0.729-1.183c-2.971,0-5.941,0-8.912,0
					C14.551,21.909,13.295,23.091,14.602,23.091L14.602,23.091z"/>
			</g>
		</g>
	</g>
	<g display="inline">
		<line fill="#00B0CE" x1="15" y1="25" x2="24" y2="25"/>
		<g>
			<path fill="#00B0CE" d="M14.602,25.091c2.971,0,5.941,0,8.912,0c0.78,0,2.036-1.183,0.729-1.183c-2.971,0-5.941,0-8.912,0
				C14.551,23.909,13.295,25.091,14.602,25.091L14.602,25.091z"/>
		</g>
	</g>
	<g display="inline">
		<line fill="#00B0CE" x1="15" y1="27" x2="24" y2="27"/>
		<g>
			<path fill="#00B0CE" d="M14.602,27.092c2.971,0,5.941,0,8.912,0c0.78,0,2.036-1.183,0.729-1.183c-2.971,0-5.941,0-8.912,0
				C14.551,25.909,13.295,27.092,14.602,27.092L14.602,27.092z"/>
		</g>
	</g>
	<g display="inline">
		<line fill="#00B0CE" x1="16" y1="29" x2="24" y2="29"/>
		<g>
			<path fill="#00B0CE" d="M15.153,29.092c2.801,0,5.603,0,8.404,0c0.78,0,2.036-1.184,0.729-1.184c-2.801,0-5.603,0-8.404,0
				C15.102,27.908,13.846,29.092,15.153,29.092L15.153,29.092z"/>
		</g>
	</g>
	<rect x="10.466" y="8.458" display="inline" fill="none" width="27.141" height="27.438"/>
	
		<text transform="matrix(1 0 0 1 10.4658 34.377)" fill="#00B0CE" stroke="#00B0CE" stroke-miterlimit="10" font-family="'Helvetica-Light'" font-size="36">C</text>
</g>
</svg>
